<?xml version="1.0" encoding="UTF-8" standalone="no"?>
<!DOCTYPE svg PUBLIC "-//W3C//DTD SVG 1.1//EN"
 "http://www.w3.org/Graphics/SVG/1.1/DTD/svg11.dtd">
<!-- Generated by graphviz version 2.49.0 (20210828.1703)
 -->
<!-- Title: kilo Pages: 1 -->
<svg width="1040pt" height="170pt"
 viewBox="0.00 0.00 1040.32 169.59" xmlns="http://www.w3.org/2000/svg" xmlns:xlink="http://www.w3.org/1999/xlink">
<g id="graph0" class="graph" transform="scale(1 1) rotate(0) translate(4 165.59)">
<title>kilo</title>
<polygon fill="white" stroke="transparent" points="-4,4 -4,-165.59 1036.32,-165.59 1036.32,4 -4,4"/>
<text text-anchor="middle" x="516.16" y="-146.39" font-family="Times,serif" font-size="14.00">10.4.0.0/16</text>
<!-- ip&#45;10&#45;1&#45;15&#45;127.ap&#45;northeast&#45;1.compute.internal -->
<g id="node1" class="node">
<title>ip&#45;10&#45;1&#45;15&#45;127.ap&#45;northeast&#45;1.compute.internal</title>
<ellipse fill="none" stroke="black" cx="431.73" cy="-69.3" rx="200.64" ry="69.09"/>
<text text-anchor="middle" x="431.73" y="-103.1" font-family="Times,serif" font-size="14.00">location:aws</text>
<text text-anchor="middle" x="431.73" y="-88.1" font-family="Times,serif" font-size="14.00">ip&#45;10&#45;1&#45;15&#45;127.ap&#45;northeast&#45;1.compute.internal</text>
<text text-anchor="middle" x="431.73" y="-73.1" font-family="Times,serif" font-size="14.00">10.2.0.0/24</text>
<text text-anchor="middle" x="431.73" y="-58.1" font-family="Times,serif" font-size="14.00">10.1.15.127</text>
<text text-anchor="middle" x="431.73" y="-43.1" font-family="Times,serif" font-size="14.00">10.4.0.1</text>
<text text-anchor="middle" x="431.73" y="-28.1" font-family="Times,serif" font-size="14.00">52.199.45.154:51820</text>
</g>
<!-- ip&#45;10&#45;1&#45;28&#45;31.ap&#45;northeast&#45;1.compute.internal -->
<g id="node2" class="node">
<title>ip&#45;10&#45;1&#45;28&#45;31.ap&#45;northeast&#45;1.compute.internal</title>
<ellipse fill="none" stroke="black" cx="836.45" cy="-69.3" rx="195.74" ry="48.17"/>
<text text-anchor="middle" x="836.45" y="-88.1" font-family="Times,serif" font-size="14.00">location:aws</text>
<text text-anchor="middle" x="836.45" y="-73.1" font-family="Times,serif" font-size="14.00">ip&#45;10&#45;1&#45;28&#45;31.ap&#45;northeast&#45;1.compute.internal</text>
<text text-anchor="middle" x="836.45" y="-58.1" font-family="Times,serif" font-size="14.00">10.2.1.0/24</text>
<text text-anchor="middle" x="836.45" y="-43.1" font-family="Times,serif" font-size="14.00">10.1.28.31</text>
</g>
<!-- rico -->
<g id="node3" class="node">
<title>rico</title>
<ellipse fill="none" stroke="black" cx="27" cy="-69.3" rx="27" ry="27.65"/>
<text text-anchor="middle" x="27" y="-73.6" font-family="Times,serif" font-size="14.00">rico</text>
</g>
<!-- ip&#45;10&#45;1&#45;15&#45;127.ap&#45;northeast&#45;1.compute.internal&#45;&gt;ip&#45;10&#45;1&#45;28&#45;31.ap&#45;northeast&#45;1.compute.internal -->
<g id="edge1" class="edge">
<title>ip&#45;10&#45;1&#45;15&#45;127.ap&#45;northeast&#45;1.compute.internal&#45;&gt;ip&#45;10&#45;1&#45;28&#45;31.ap&#45;northeast&#45;1.compute.internal</title>
<path fill="none" stroke="black" d="M639.87,-69.3C639.95,-69.3 640.03,-69.3 640.11,-69.3"/>
<polygon fill="black" stroke="black" points="642.61,-65.8 632.61,-69.3 642.61,-72.8 642.61,-65.8"/>
<polygon fill="black" stroke="black" points="630.35,-72.8 640.35,-69.3 630.35,-65.8 630.35,-72.8"/>
</g>
<!-- ip&#45;10&#45;1&#45;15&#45;127.ap&#45;northeast&#45;1.compute.internal&#45;&gt;rico -->
<g id="edge2" class="edge">
<title>ip&#45;10&#45;1&#45;15&#45;127.ap&#45;northeast&#45;1.compute.internal&#45;&gt;rico</title>
<path fill="none" stroke="black" stroke-dasharray="5,2" d="M220.64,-69.3C160.34,-69.3 101.09,-69.3 64.32,-69.3"/>
<polygon fill="black" stroke="black" points="220.85,-72.8 230.85,-69.3 220.85,-65.8 220.85,-72.8"/>
<polygon fill="black" stroke="black" points="64.12,-65.8 54.12,-69.3 64.12,-72.8 64.12,-65.8"/>
</g>
</g>
</svg>
